<svg version="1.1" id="Capa_1" xmlns="http://www.w3.org/2000/svg" x="0" y="0" viewBox="0 0 512 512" xml:space="preserve"><path d="M502.221 468.89l-62.643-230.4c-4.082-14.807-17.519-25.089-32.879-25.156H281.575v-17.067h36.915a17.225 17.225 0 0 0 10.24-3.413l22.801-17.067a17.067 17.067 0 0 0 0-27.306l-22.801-17.067a17.167 17.167 0 0 0-10.24-3.413h-36.915v-17.067h36.915a17.225 17.225 0 0 0 10.24-3.413l22.801-17.067a17.067 17.067 0 0 0 0-27.306L328.73 46.08a17.167 17.167 0 0 0-10.24-3.413h-36.915v-25.6C281.575 7.641 273.934 0 264.508 0h-34.133c-9.426 0-17.067 7.641-17.067 17.067v25.6h-17.067c-9.426 0-17.067 7.641-17.067 17.067v25.6h-36.642a17.294 17.294 0 0 0-10.24 3.413l-22.997 17.067a17.007 17.007 0 0 0 0 27.358l22.989 17.067a17.324 17.324 0 0 0 10.24 3.413h36.651v25.6c0 9.426 7.641 17.067 17.067 17.067h17.067v17.067l-108.015-.051c-15.362.071-28.802 10.35-32.896 25.156L9.763 468.89A34.135 34.135 0 0 0 42.573 512H469.41a34.083 34.083 0 0 0 32.811-43.11zM230.375 17.067h34.133v25.6h-34.133v-25.6zm-34.133 42.666h122.266l22.8 17.067-22.81 17.067H196.242V59.733zm68.266 51.2V128h-34.133v-17.067h34.133zm-82.969 25.6h-39.057l-23.04-17.067 23.091-17.067h39.014a17.065 17.065 0 0 0 14.694 8.533h17.067V128h-17.067a17.015 17.015 0 0 0-14.702 8.533zm14.703 42.667v-34.133h122.266l22.801 17.067-22.81 17.067H196.242zm68.266 17.067v128a8.533 8.533 0 0 1-8.533 8.533h-17.067a8.533 8.533 0 0 1-8.533-8.533v-128h34.133zm-83.515 298.658H42.573a16.766 16.766 0 0 1-13.431-6.647 17.007 17.007 0 0 1-2.91-14.916l62.626-230.357a17.152 17.152 0 0 1 16.435-12.604h108.015v43.11a252.636 252.636 0 0 0-61.363 8.533c-13.901 4.71-16.725 18.159-18.773 27.972a49.105 49.105 0 0 1-2.935 10.47c-10.24 20.847-16.981 52.471-2.082 72.96 7.091 9.754 21.956 20.48 52.105 15.923 6.561 4.523 6.757 44.272.733 85.556zm17.237.008c3.891-27.366 9.387-82.057-5.683-97.399a16.545 16.545 0 0 0-14.507-4.915c-17.655 2.56-29.798-.538-36.096-9.199-9.694-13.346-4.932-38.067 3.61-55.407a61.667 61.667 0 0 0 4.267-14.507c1.963-9.344 3.354-13.892 7.569-15.36a238.846 238.846 0 0 1 55.919-7.552v33.672c0 14.138 11.462 25.6 25.6 25.6h17.067a25.6 25.6 0 0 0 25.6-25.6v-19.243a81.417 81.417 0 0 0 34.133 10.709 8.473 8.473 0 0 0 3.823-.905l22.613-11.315c-2.022 3.814-4.779 8.602-7.868 13.952a260.045 260.045 0 0 0-26.846 55.927c-4.582 18.347-21.257 31.573-35.977 43.255a81.536 81.536 0 0 0-23.108 23.27c-6.878 13.747-18.825 42.948-23.714 55.014H198.23zm44.834-.034c5.658-13.815 15.019-36.301 20.565-47.386a76.69 76.69 0 0 1 18.458-17.536c16.009-12.698 35.934-28.51 41.924-52.471a255.094 255.094 0 0 1 25.071-51.533c3.285-5.709 6.221-10.803 8.329-14.814a17.068 17.068 0 0 0-19.225-24.534 8.636 8.636 0 0 0-1.707.649l-22.434 11.221a85.53 85.53 0 0 1-32.469-13.09V230.4H406.7a17.127 17.127 0 0 1 16.418 12.561l21.751 79.992c-18.773-.418-46.379 2.662-59.443 22.187a93.632 93.632 0 0 0-14.063 37.154 76.98 76.98 0 0 1-11.537 31.07 147.405 147.405 0 0 1-18.005 20.548c-15.258 15.462-32.196 32.922-34.295 60.988h-64.462zm239.787-6.622a16.793 16.793 0 0 1-13.44 6.656H324.566c2.074-21.18 15.36-34.765 29.397-49.007a161.85 161.85 0 0 0 20.062-23.04 93.657 93.657 0 0 0 14.071-37.18 77.102 77.102 0 0 1 11.52-31.061c8.329-12.433 30.293-15.556 49.954-14.345l36.19 133.12a16.988 16.988 0 0 1-2.909 14.857z"/></svg>