<svg version="1.1" id="Capa_1" xmlns="http://www.w3.org/2000/svg" x="0" y="0" viewBox="0 0 512.8 512.8" xml:space="preserve"><path d="M507.2 175.2l-16-8c-4-1.6-8.8 0-10.4 3.2-1.6 3.2 0 8.8 3.2 10.4l11.2 5.6v286.4l-80-40V286.4c0-4.8-3.2-8-8-8s-8 3.2-8 8v147.2l-88 40.8v-68c0-4.8-3.2-8-8-8s-8 3.2-8 8v67.2l-80-39.2v-44c0-4.8-3.2-8-8-8s-8 3.2-8 8V432l-88 41.6V214.4c0-4.8-3.2-8-8-8s-8 3.2-8 8v259.2l-80-40V147.2l84.8 42.4c2.4.8 4.8.8 7.2 0l16-8c4-1.6 5.6-6.4 3.2-10.4-2.4-4-6.4-5.6-10.4-3.2l-12 5.6-92.8-46.4c-2.4-1.6-5.6-.8-8 0-1.6 1.6-3.2 4.8-3.2 7.2v304c0 3.2 1.6 5.6 4.8 7.2l96 48c.8.8 1.6.8 3.2.8.8 0 2.4 0 3.2-.8l98.4-46.4 94.4 46.4c.8 0 1.6.8 2.4.8h.8c.8 0 2.4 0 3.2-.8L408 447.2l92.8 46.4c.8.8 2.4.8 4 .8s3.2 0 4-.8c2.4-1.6 4-4 4-7.2v-304c-.8-3.2-2.4-5.6-5.6-7.2z"/><path d="M224.8 143.2c-1.6 4 0 8.8 3.2 10.4l68 33.6v27.2c0 4.8 3.2 8 8 8s8-3.2 8-8v-27.2l11.2-5.6c4-1.6 5.6-6.4 3.2-10.4-1.6-4-6.4-5.6-10.4-3.2l-12 5.6-68.8-34.4c-4-1.6-8.8 0-10.4 4zm177.6 125.6c2.4 0 4.8-.8 6.4-3.2 6.4-8 62.4-79.2 62.4-114.4 0-38.4-31.2-68.8-68.8-68.8-37.6 0-68.8 31.2-68.8 68.8 0 35.2 56 106.4 62.4 114.4 1.6 1.6 4 3.2 6.4 3.2zm0-170.4c28.8 0 52.8 24 52.8 52.8 0 22.4-33.6 72-52.8 96.8-19.2-24.8-52.8-74.4-52.8-96.8 0-29.6 23.2-52.8 52.8-52.8z"/><path d="M422.4 151.2c0-11.2-8.8-20-20-20s-20 8.8-20 20 8.8 20 20 20 20-8.8 20-20zm-24 0c0-2.4 1.6-4 4-4s4 1.6 4 4-1.6 4-4 4-4-1.6-4-4zm-236 53.6c2.4 0 4.8-.8 6.4-3.2 6.4-8 62.4-79.2 62.4-114.4 0-38.4-31.2-68.8-68.8-68.8-38.4 0-68.8 31.2-68.8 68.8 0 35.2 56 106.4 62.4 114.4 1.6 1.6 4 3.2 6.4 3.2zm0-170.4c28.8 0 52.8 24 52.8 52.8 0 22.4-33.6 72-52.8 96.8-19.2-24.8-52.8-74.4-52.8-96.8 0-28.8 24-52.8 52.8-52.8z"/><path d="M182.4 87.2c0-11.2-8.8-20-20-20s-20 8.8-20 20 8.8 20 20 20 20-8.8 20-20zm-24 0c0-2.4 1.6-4 4-4s4 1.6 4 4-1.6 4-4 4-4-1.6-4-4zM252 401.6c1.6 1.6 4 3.2 6.4 3.2 2.4 0 4.8-.8 6.4-3.2 6.4-8 62.4-79.2 62.4-114.4 0-38.4-31.2-68.8-68.8-68.8-37.6 0-68.8 31.2-68.8 68.8 0 35.2 56 106.4 62.4 114.4zm6.4-167.2c28.8 0 52.8 24 52.8 52.8 0 22.4-33.6 72-52.8 96.8-19.2-24.8-52.8-74.4-52.8-96.8 0-29.6 23.2-52.8 52.8-52.8z"/><path d="M258.4 307.2c11.2 0 20-8.8 20-20s-8.8-20-20-20-20 8.8-20 20 8.8 20 20 20zm0-24c2.4 0 4 1.6 4 4s-1.6 4-4 4-4-1.6-4-4 1.6-4 4-4zM44.8 76.8L56 65.6l11.2 11.2 11.2-11.2-11.2-11.2 11.2-11.2L67.2 32 56 43.2 44.8 32 33.6 43.2l11.2 11.2-11.2 11.2zm408 0L464 65.6l11.2 11.2 11.2-11.2-11.2-11.2 11.2-11.2L475.2 32 464 43.2 452.8 32l-11.2 11.2 11.2 11.2-11.2 11.2zM216 214.4v-32c0-4.8-3.2-8-8-8s-8 3.2-8 8v32c0 4.8 3.2 8 8 8s8-3.2 8-8zm80-144h24c4.8 0 8-3.2 8-8s-3.2-8-8-8h-24c-4.8 0-8 3.2-8 8s3.2 8 8 8zm56-24h24c4.8 0 8-3.2 8-8s-3.2-8-8-8h-24c-4.8 0-8 3.2-8 8s3.2 8 8 8z"/></svg>