<svg xmlns="http://www.w3.org/2000/svg" width="616" height="423" viewBox="0 0 53.825 36.966" shape-rendering="geometricPrecision" text-rendering="geometricPrecision" image-rendering="optimizeQuality" fill-rule="evenodd" clip-rule="evenodd"><defs><style>.fil2{fill:#2b2a29}.fil1{fill:#41a7b4}</style></defs><g id="Layer_x0020_1"><path fill="none" d="M0 0h53.825v36.966H0z"/><g id="car.eps"><path id="_69569624" class="fil1" d="M15.12 20.52a1.106 1.106 0 1 0 .002 2.213 1.106 1.106 0 0 0-.001-2.213zm23.359 0a1.107 1.107 0 1 0 0 2.213 1.107 1.107 0 0 0 0-2.213zm7.17-3.786h-.382c-.606 0-1.1-.494-1.1-1.1v-1.088h.979c.32.453.502 1 .502 1.584v.604zm0 4.16h-2.933a4.308 4.308 0 0 0-4.238-3.568 4.308 4.308 0 0 0-4.237 3.567H19.36a4.309 4.309 0 0 0-4.238-3.567 4.308 4.308 0 0 0-4.238 3.567H8.177v-1.742a4.694 4.694 0 0 0 4.606-4.093l3.51-.512h26.204v1.087a2.773 2.773 0 0 0 2.77 2.77h.381v2.49zm-7.17 3.365a2.633 2.633 0 1 1-.001-5.265 2.633 2.633 0 0 1 0 5.265zm-23.358 0a2.632 2.632 0 1 1 0-5.264 2.632 2.632 0 0 1 0 5.264zm-4.091-8.941a3.027 3.027 0 0 1-2.607 2.15 3.508 3.508 0 0 1 2.607-2.15zm12.744-4.506a9.259 9.259 0 0 1 3.294-.958v3.023h-7.356l4.062-2.065zm4.964-1.003h3.983c.152 0 .303.004.453.011l2.348 3.057h-6.784V9.81zm7.415.662l6.003 2.406h-4.53l-1.993-2.596c.174.059.348.122.52.19zm8.397 1.568l-7.776-3.117a10.841 10.841 0 0 0-4.053-.782h-4.766a10.94 10.94 0 0 0-4.938 1.184l-7.045 3.583-5.054.736a5.155 5.155 0 0 0-4.41 5.102v2.983c0 .46.373.834.834.834h3.58c.18.812.591 1.555 1.199 2.148a4.283 4.283 0 0 0 3 1.218 4.283 4.283 0 0 0 3.001-1.218 4.285 4.285 0 0 0 1.2-2.148h14.957c.18.812.59 1.555 1.2 2.147a4.277 4.277 0 0 0 2.999 1.22 4.28 4.28 0 0 0 3-1.22 4.278 4.278 0 0 0 1.2-2.147h3.805c.46 0 .834-.373.834-.834V16.13a4.388 4.388 0 0 0-2.767-4.091zM15.12 20.52a1.106 1.106 0 1 0 .002 2.213 1.106 1.106 0 0 0-.001-2.213zm0 0a1.106 1.106 0 1 0 .002 2.213 1.106 1.106 0 0 0-.001-2.213z"/><path id="_216136216" class="fil1" d="M29.638 16.885h-5.535a.835.835 0 1 0 0 1.67h5.535a.835.835 0 1 0 0-1.67z"/><path id="_216136144" class="fil2" d="M16.227 21.627a1.106 1.106 0 1 1-2.212 0 1.106 1.106 0 0 1 2.212 0z"/><path id="_216136072" class="fil2" d="M39.584 21.627a1.106 1.106 0 1 1-2.212 0 1.106 1.106 0 0 1 2.212 0z"/><path id="_215617952" class="fil1" d="M16.227 21.627a1.106 1.106 0 1 1-2.212 0 1.106 1.106 0 0 1 2.212 0z"/><path id="_217469064" class="fil1" d="M39.584 21.627a1.106 1.106 0 1 1-2.212 0 1.106 1.106 0 0 1 2.212 0z"/></g></g></svg>