<svg xmlns="http://www.w3.org/2000/svg" version="1.1" id="Layer_1" x="0" y="0" xml:space="preserve" width="512" height="512"><path d="M432.475 84.042h-58.219c-.5-7.833-6.993-14.036-14.951-14.036h-.773V37.839C358.531 16.975 341.382 0 320.303 0H191.697c-21.079 0-38.229 16.975-38.229 37.839v32.167h-.773c-7.958 0-14.452 6.203-14.951 14.036H79.525C36.103 84.042.777 119.368.777 162.79v284.886C.777 483.145 29.633 512 65.101 512H446.9c35.468 0 64.323-28.855 64.323-64.324V162.79c0-43.422-35.327-78.748-78.748-78.748zm-167.133 30c13.386 2.672 25.03 10.258 32.874 21.483 8.065 11.543 11.154 25.537 8.695 39.402a52.546 52.546 0 0 1-5.316 15.477l-42.149 4.837a15.002 15.002 0 0 0-10.649 6.402l-61.742 89.772a15.004 15.004 0 0 0 3.859 20.86l61.576 42.35a14.93 14.93 0 0 0 8.486 2.642c4.772 0 9.464-2.271 12.373-6.501l61.742-89.771a15 15 0 0 0 2.168-12.234l-10.678-41.54c4.848-8.351 8.162-17.432 9.869-27.054 3.858-21.756-.987-43.712-13.644-61.824a84.12 84.12 0 0 0-3.239-4.299h54.165V482H138.268V114.042h127.074zm41.164 135.575l-49.375 71.789-36.857-25.35 49.374-71.789 29.472-3.382 7.386 28.732zM183.469 37.839c0-4.469 3.537-7.839 8.229-7.839h128.605c4.691 0 8.229 3.37 8.229 7.839v32.167h-.774c-7.958 0-14.452 6.203-14.951 14.036H199.194c-.499-7.833-6.993-14.036-14.951-14.036h-.774V37.839zM30.777 447.676V162.79c0-26.88 21.868-48.748 48.748-48.748h28.742V482H65.101c-18.926 0-34.324-15.397-34.324-34.324zm450.446 0c0 18.927-15.397 34.324-34.323 34.324h-43.167V114.042h28.742c26.88 0 48.748 21.868 48.748 48.748v284.886z"/></svg>