<svg id="Слой_1" data-name="Слой 1" xmlns="http://www.w3.org/2000/svg" viewBox="0 0 550 550"><defs><style>.cls-1{fill:#1b1b1b;}.cls-2,.cls-3,.cls-4,.cls-5{fill:none;}.cls-2,.cls-3,.cls-4,.cls-5,.cls-6{stroke:#1b1b1b;stroke-miterlimit:22.93;}.cls-2{stroke-width:3px;}.cls-3{stroke-width:1.01px;}.cls-4{stroke-width:6.43px;}.cls-5{stroke-width:0.99px;}.cls-6{stroke-width:0.58px;}.cls-7{fill:#fff;}</style></defs><title>Монтажная область 1</title><path class="cls-1" d="M73.88,318.09a26.09,26.09,0,0,1,.38-5,15,15,0,0,1,1.81-4.87,16,16,0,0,1,1.5-2.09c.52-.63,1-1.25,1.58-1.86,1.07-1.22,2.2-2.4,3.36-3.54a93.48,93.48,0,0,1,7.3-6.37c2.49-2,5-4,7.29-6.11a47.38,47.38,0,0,0,6.39-6.84,14.63,14.63,0,0,0,3.18-8.29,16.4,16.4,0,0,0-2.57-8.6,39.73,39.73,0,0,0-5.81-7.35,87.23,87.23,0,0,0-14.87-11.79c-2.66-1.74-5.38-3.42-8-5.2a58.47,58.47,0,0,1-7.65-5.88,18.72,18.72,0,0,1-3.09-3.77A11.77,11.77,0,0,1,63,225.89a14.86,14.86,0,0,1,2.28-9.33,20.12,20.12,0,0,1,6.56-7,33.41,33.41,0,0,1,8.93-3.48h0c0-.06.07,0,.1,0L81,206a.32.32,0,0,1,.17-.12l2.29-.37-2.18.73A35.43,35.43,0,0,0,76.8,208a16.15,16.15,0,0,0-3.88,2.67,20,20,0,0,0-5.32,7.69,11.5,11.5,0,0,0-.7,4.56,9.45,9.45,0,0,0,1.39,4.35c1.65,2.63,4.23,4.59,6.79,6.42,5.22,3.62,10.84,6.69,16.22,10.18a94.76,94.76,0,0,1,15.21,11.83,43.59,43.59,0,0,1,6.22,7.49,18.53,18.53,0,0,1,3.24,9.36A18,18,0,0,1,113.1,282a42.84,42.84,0,0,1-6.12,7.64c-4.56,4.59-9.49,8.69-14.31,12.86a37.78,37.78,0,0,0-6.44,6.66,12.34,12.34,0,0,0-2.4,8.31H81.29a14.84,14.84,0,0,1,3-9.69,39.67,39.67,0,0,1,6.94-7c4.89-4.12,9.85-8.14,14.36-12.55a40.62,40.62,0,0,0,5.94-7.2,16.09,16.09,0,0,0,2.74-8.53,16.94,16.94,0,0,0-2.86-8.55,42.78,42.78,0,0,0-5.9-7.3,94,94,0,0,0-14.83-11.87c-5.29-3.54-10.86-6.68-16.1-10.42-2.58-1.9-5.19-3.92-6.94-6.77a10.28,10.28,0,0,1-1.43-4.71,12.22,12.22,0,0,1,.81-4.83,20.76,20.76,0,0,1,5.58-7.85,17.25,17.25,0,0,1,4-2.68,36.15,36.15,0,0,1,4.52-1.67l.11.37a.38.38,0,0,1-.21,0l-.1,0s0,.08-.1,0h0a32.88,32.88,0,0,0-8.8,3.6,19.65,19.65,0,0,0-6.3,6.95,14.28,14.28,0,0,0-2,9,11.25,11.25,0,0,0,1.6,4.32,17.92,17.92,0,0,0,3,3.55,55.87,55.87,0,0,0,7.62,5.65c2.68,1.72,5.42,3.35,8.14,5.05a88.8,88.8,0,0,1,15.3,11.71,41.31,41.31,0,0,1,6.15,7.57,17.94,17.94,0,0,1,2.94,9.48,16.46,16.46,0,0,1-3.4,9.38,48.64,48.64,0,0,1-6.56,7.24c-2.36,2.2-4.82,4.27-7.29,6.3a90.42,90.42,0,0,0-7,6.32Q82.5,304,81,305.83c-.51.59-1,1.2-1.5,1.81a12.94,12.94,0,0,0-1.27,1.81,16,16,0,0,0-1.72,8.61Z"/><polygon class="cls-1" points="63.19 222.39 63.44 245.97 63.58 269.54 63.7 316.68 63.6 363.82 63.46 387.39 63.22 410.96 62.97 387.39 62.83 363.82 62.7 316.68 62.81 269.54 62.95 245.97 63.19 222.39"/><path class="cls-2" d="M85,300.15A6.51,6.51,0,0,0,89.37,304"/><path class="cls-3" d="M68,227.26a4,4,0,0,0-1.6.17,12.39,12.39,0,0,0-1.93.9"/><path class="cls-4" d="M79.18,317.57v-3.5l.44-1.88L80.1,310a3.76,3.76,0,0,1,1.37-2l1.78-1.47,3.43-3"/><path class="cls-1" d="M63.74,228.05,63.41,226l-.08-.49,0-.11c0-.06,0,0,0-.09l0-.35,0-.39c0-.49,0-.95,0-1.43a12.58,12.58,0,0,1,.11-1.47,5.69,5.69,0,0,1,.52-1.73l-.1.27A14.21,14.21,0,0,1,65,217.89c.4-.7.81-1.36,1.24-2s.86-1.3,1.3-2l.33-.48a3.41,3.41,0,0,1,.53-.59l.85-.74,0,0c.44-.5,1-1.16,1.51-1.66a8.16,8.16,0,0,1,1.87-1.28,18.39,18.39,0,0,1,2.07-.85c.7-.24,1.35-.56,2.05-.78-.3.22-.66.3-1,.49a6.81,6.81,0,0,0-.93.57A17.15,17.15,0,0,0,73.11,210l-1.53,1.44a8.14,8.14,0,0,0-1.4,1.56l0,0-.77.91-.09.11a.05.05,0,0,0,0,.05l0,0-.05.11-.25.52c-.33.69-.65,1.38-1,2.08s-.61,1.39-.87,2.08a10.56,10.56,0,0,0-.59,2l-.1.27a4.27,4.27,0,0,0,0,.73,8.45,8.45,0,0,0,.11,1.07c0,.36.13.74.21,1.09l.07.24.09.27a3.66,3.66,0,0,1,.12,1.17l0-.61.65,2Z"/><path class="cls-1" d="M76.48,316.94a16,16,0,0,0,1.72,8.6,12.94,12.94,0,0,0,1.27,1.81c.49.61,1,1.22,1.5,1.82q1.53,1.79,3.18,3.45a88.43,88.43,0,0,0,7,6.32c2.47,2,4.93,4.1,7.29,6.31a48.56,48.56,0,0,1,6.56,7.23,16.46,16.46,0,0,1,3.4,9.38,17.94,17.94,0,0,1-2.94,9.48,41.31,41.31,0,0,1-6.15,7.57,88.8,88.8,0,0,1-15.3,11.71c-2.72,1.7-5.46,3.34-8.14,5.05a56.72,56.72,0,0,0-7.62,5.65,18,18,0,0,0-3,3.56,11.13,11.13,0,0,0-1.6,4.32,14.25,14.25,0,0,0,2,9,19.69,19.69,0,0,0,6.3,7,33.18,33.18,0,0,0,8.8,3.59h0c.05,0,.05.06.1,0l.1,0a.38.38,0,0,1,.21,0l-.11.37a39.46,39.46,0,0,1-4.37-1.59A17.38,17.38,0,0,1,72.82,425a21,21,0,0,1-5.58-7.45,12.47,12.47,0,0,1-1.06-4.6,10.09,10.09,0,0,1,1-4.65,14,14,0,0,1,2.79-3.84,34.21,34.21,0,0,1,3.55-3.05c5-3.72,10.38-6.76,15.52-10.13a103.89,103.89,0,0,0,14.61-11.13,52,52,0,0,0,6.14-6.73,23.49,23.49,0,0,0,4.08-7.89,12.92,12.92,0,0,0-.73-8.5,27.94,27.94,0,0,0-4.88-7.45,74.12,74.12,0,0,0-6.49-6.41c-2.3-2-4.63-4-7-6S90,333.22,87.67,331a22.06,22.06,0,0,1-3.12-3.73,34.21,34.21,0,0,1-2.44-4.15l-.06-.13,0-.17c-.17-.87-.32-1.73-.45-2.61l-.18-1.34c0-.46-.09-.91-.1-1.43h2.54c0,.34,0,.75.07,1.16s.09.82.15,1.24c.11.84.25,1.69.39,2.52l-.09-.29a26.13,26.13,0,0,0,5,7.24c2.14,2.1,4.53,4.07,6.86,6.09s4.67,4.06,7,6.15a76.78,76.78,0,0,1,6.57,6.68,29.81,29.81,0,0,1,5.09,8,16.62,16.62,0,0,1,1.15,4.73,14.06,14.06,0,0,1-.47,4.88,25.25,25.25,0,0,1-4.47,8.4,53.86,53.86,0,0,1-6.41,6.83,105,105,0,0,1-15,11.07C84.41,395.54,79,398.51,74,402.1a31.76,31.76,0,0,0-3.5,2.93,12.87,12.87,0,0,0-2.68,3.57,9.27,9.27,0,0,0-1,4.3,12.09,12.09,0,0,0,1,4.38,20.42,20.42,0,0,0,5.33,7.3,16,16,0,0,0,3.78,2.52,37.72,37.72,0,0,0,4.3,1.64l2.18.73-2.29-.37A.32.32,0,0,1,81,429l-.08-.07c0-.05-.08,0-.1,0h0a33.41,33.41,0,0,1-8.93-3.48,20.12,20.12,0,0,1-6.56-7A14.83,14.83,0,0,1,63,409.11a11.72,11.72,0,0,1,1.62-4.62,18.5,18.5,0,0,1,3.09-3.78,58.47,58.47,0,0,1,7.65-5.88c2.67-1.77,5.39-3.46,8-5.2a87.23,87.23,0,0,0,14.87-11.79,40,40,0,0,0,5.81-7.34,16.46,16.46,0,0,0,2.57-8.61,14.63,14.63,0,0,0-3.18-8.29,47.9,47.9,0,0,0-6.39-6.84c-2.34-2.12-4.8-4.12-7.29-6.11a91.43,91.43,0,0,1-7.3-6.37c-1.16-1.14-2.29-2.32-3.36-3.54-.54-.61-1.06-1.23-1.58-1.85a16.77,16.77,0,0,1-1.5-2.1,15,15,0,0,1-1.81-4.87,26.09,26.09,0,0,1-.38-5Z"/><path class="cls-2" d="M85,334.84a6.59,6.59,0,0,1,1.61-2.32A6.48,6.48,0,0,1,89.37,331"/><path class="cls-5" d="M68,407.74a4,4,0,0,1-1.56-.15,11.43,11.43,0,0,1-1.88-.86"/><path class="cls-4" d="M79.18,317.42v3.51l.44,1.87L80.1,325a3.76,3.76,0,0,0,1.37,2l1.78,1.47,3.43,3"/><path class="cls-1" d="M67.62,407.89l-.65,2,0-.61a3.76,3.76,0,0,1-.12,1.18l-.09.26-.07.24c-.08.35-.16.73-.21,1.09a8.45,8.45,0,0,0-.11,1.07,4.41,4.41,0,0,0,0,.74l.1.26a10.56,10.56,0,0,0,.59,2c.26.69.56,1.39.87,2.09s.63,1.38,1,2.07l.25.52.05.12,0,0s0,0,0,.05l.09.11.77.91,0,0a7.85,7.85,0,0,0,1.4,1.56L73.11,425a15.89,15.89,0,0,0,1.67,1.38,7.91,7.91,0,0,0,.93.56c.31.19.67.27,1,.49-.7-.21-1.35-.53-2.05-.77a20.55,20.55,0,0,1-2.07-.86,8.16,8.16,0,0,1-1.87-1.28c-.54-.5-1.07-1.16-1.51-1.66l0,0-.85-.74a3.91,3.91,0,0,1-.53-.6l-.33-.48c-.44-.64-.88-1.29-1.3-1.95s-.84-1.32-1.24-2a14.33,14.33,0,0,1-1.14-2.32l.1.27a5.61,5.61,0,0,1-.52-1.73,12.58,12.58,0,0,1-.11-1.47c0-.48,0-.94,0-1.43l0-.38,0-.36c0-.1,0,0,0-.08l0-.11.08-.5.33-2.06Z"/><path class="cls-6" d="M199.88,415.93c-14.8,11.35-37.24,12.07-64.45,13.64l.38-68a521.66,521.66,0,0,0,79.14-13c.84,25.1,1.18,47.7-5.26,57.56C209.22,407.07,203.43,413.83,199.88,415.93Z"/><path class="cls-1" d="M144,231.07c.2,5.53.29,11.07.44,16.61l.25,16.61c.17,11.07.19,22.14.21,33.22s0,22.14-.21,33.22l-.25,16.61c-.15,5.53-.23,11.07-.44,16.61-.2-5.54-.29-11.08-.44-16.61l-.25-16.61c-.16-11.08-.19-22.15-.21-33.22s0-22.15.21-33.22l.25-16.61C143.7,242.14,143.79,236.6,144,231.07Z"/><path class="cls-1" d="M147.37,231.07c.2,5.52.29,11,.44,16.56l.25,16.56c.16,11,.18,22.08.21,33.12s-.05,22.08-.21,33.12L147.81,347c-.15,5.52-.24,11-.44,16.56-.21-5.52-.29-11-.44-16.56l-.25-16.57c-.17-11-.19-22.08-.21-33.12s.05-22.08.21-33.12l.25-16.56C147.08,242.11,147.17,236.59,147.37,231.07Z"/><path class="cls-1" d="M145.75,205.89c-.87,2.2-1.75,4.4-2.58,6.62s-1.62,4.44-2.26,6.71a49.81,49.81,0,0,0-1.36,6.88,35.79,35.79,0,0,0,0,7l-.09,0a20.59,20.59,0,0,1-.84-7.13,29.82,29.82,0,0,1,1.58-7,121,121,0,0,1,5.47-13.15Z"/><path class="cls-1" d="M145.73,205.85A123,123,0,0,1,151.19,219a29.33,29.33,0,0,1,1.58,7,20.59,20.59,0,0,1-.84,7.13l-.09,0a35.79,35.79,0,0,0,0-7,49.81,49.81,0,0,0-1.36-6.88c-.64-2.27-1.42-4.49-2.26-6.71s-1.7-4.42-2.58-6.62Z"/><path class="cls-1" d="M145.73,219.21l-.65,3c-.22,1-.49,2-.63,2.93s-.21,2-.34,3-.15,1.94-.29,3h-.09a8.13,8.13,0,0,1-.56-3,12.92,12.92,0,0,1,.54-3c.25-1,.61-1.94.92-2.91l1-2.86Z"/><path class="cls-1" d="M145.72,219.18l1,2.86c.32,1,.68,1.92.92,2.91a12.43,12.43,0,0,1,.54,3,8.32,8.32,0,0,1-.55,3h-.1c-.13-1-.15-2-.29-3s-.17-2-.33-3-.42-1.95-.64-2.93l-.65-3Z"/><path class="cls-1" d="M204,231.07c.2,5.53.29,11.07.43,16.61l.25,16.61c.17,11.07.19,22.14.21,33.22s0,22.14-.2,33.22l-.25,16.61c-.15,5.53-.24,11.07-.44,16.61-.21-5.54-.3-11.08-.45-16.61l-.25-16.61c-.16-11.08-.18-22.15-.2-33.22s0-22.15.21-33.22l.25-16.61C203.71,242.14,203.79,236.6,204,231.07Z"/><path class="cls-1" d="M207.37,231.07c.2,5.52.29,11,.44,16.56l.25,16.56c.16,11,.19,22.08.21,33.12s-.05,22.08-.21,33.12L207.81,347c-.15,5.52-.24,11-.44,16.56-.2-5.52-.29-11-.44-16.56l-.25-16.57c-.16-11-.19-22.08-.21-33.12s.05-22.08.21-33.12l.25-16.56C207.08,242.11,207.17,236.59,207.37,231.07Z"/><path class="cls-1" d="M205.75,205.89c-.87,2.2-1.75,4.4-2.57,6.62s-1.63,4.44-2.26,6.71a47,47,0,0,0-1.36,6.88,35.79,35.79,0,0,0,0,7l-.09,0a20.59,20.59,0,0,1-.84-7.13,30.33,30.33,0,0,1,1.58-7,121,121,0,0,1,5.47-13.15Z"/><path class="cls-1" d="M205.73,205.85A121,121,0,0,1,211.2,219a29.81,29.81,0,0,1,1.57,7,20.59,20.59,0,0,1-.83,7.13l-.1,0a35.79,35.79,0,0,0,0-7,47,47,0,0,0-1.36-6.88c-.63-2.27-1.42-4.49-2.26-6.71s-1.7-4.42-2.58-6.62Z"/><path class="cls-1" d="M205.73,219.21l-.64,3c-.22,1-.49,2-.64,2.93s-.21,2-.34,3-.15,1.94-.29,3h-.09a8.32,8.32,0,0,1-.55-3,12.43,12.43,0,0,1,.54-3c.24-1,.6-1.94.91-2.91l1-2.86Z"/><path class="cls-1" d="M205.73,219.18l1,2.86c.31,1,.67,1.92.91,2.91a12.43,12.43,0,0,1,.54,3,8.32,8.32,0,0,1-.55,3h-.09c-.14-1-.16-2-.29-3s-.18-2-.34-3-.42-1.95-.64-2.93l-.64-3Z"/><path class="cls-1" d="M173.71,206c.22,6.66.31,13.31.47,20l.28,20c.16,13.31.14,26.61.22,39.92-.07,13.3-.06,26.61-.22,39.91l-.27,20c-.16,6.65-.26,13.31-.48,20-.22-6.65-.32-13.31-.48-20l-.27-20c-.16-13.3-.15-26.61-.22-39.91s.06-26.61.22-39.92l.27-20C173.39,219.3,173.49,212.65,173.71,206Z"/><path class="cls-1" d="M177.19,206c.22,6.63.32,13.26.48,19.89l.27,19.88c.16,13.26.15,26.51.23,39.77-.08,13.25-.07,26.51-.23,39.76l-.27,19.89c-.16,6.63-.25,13.25-.48,19.88-.22-6.63-.31-13.25-.47-19.88l-.28-19.89c-.15-13.25-.14-26.51-.22-39.76.08-13.26.07-26.51.23-39.77l.27-19.88C176.88,219.25,177,212.62,177.19,206Z"/><path class="cls-1" d="M173.83,206c.26.39.49.79.75,1.15s.58.71.89.68.63-.35.89-.69.5-.76.78-1.14a4.91,4.91,0,0,1-.47,1.33,2.32,2.32,0,0,1-.44.6,1.15,1.15,0,0,1-.75.37,1.11,1.11,0,0,1-.77-.35,2.26,2.26,0,0,1-.43-.61A4.71,4.71,0,0,1,173.83,206Z"/><path class="cls-1" d="M151.84,233.17a12.94,12.94,0,0,0-3-1.23c-.53-.13-1.07-.15-1.58-.31a9.37,9.37,0,0,1-1.57-.61v-.09a3.87,3.87,0,0,1,1.74-.23,5,5,0,0,1,1.64.54,10.06,10.06,0,0,1,2.85,1.85Z"/><path class="cls-1" d="M139.43,233.1a10.09,10.09,0,0,1,2.85-1.86,5.31,5.31,0,0,1,1.65-.53,3.83,3.83,0,0,1,1.73.22v.1a9.3,9.3,0,0,1-1.57.6c-.51.17-1,.18-1.58.32a12.91,12.91,0,0,0-3,1.22Z"/><path class="cls-1" d="M211.89,233.15a13.65,13.65,0,0,0-3-1.23c-.53-.13-1.07-.15-1.57-.31a8.75,8.75,0,0,1-1.57-.61v-.09a3.87,3.87,0,0,1,1.74-.23,5,5,0,0,1,1.64.54,9.92,9.92,0,0,1,2.85,1.85Z"/><path class="cls-1" d="M199.47,233.08a10.09,10.09,0,0,1,2.85-1.86,5.31,5.31,0,0,1,1.65-.53,3.82,3.82,0,0,1,1.73.22v.1a9.3,9.3,0,0,1-1.57.6c-.51.17-1,.18-1.57.32a13,13,0,0,0-3,1.22Z"/><path class="cls-1" d="M173.66,270.41c-1.79-5-3.47-10-5-15.15s-2.83-10.25-3.88-15.48a102,102,0,0,1-2-15.88,62.88,62.88,0,0,1,.23-8c.27-2.66.63-5.29,1.11-7.91a117.91,117.91,0,0,0,0,15.84,142.53,142.53,0,0,0,2.35,15.62c1,5.18,2.25,10.32,3.48,15.47S172.52,265.21,173.66,270.41Z"/><path class="cls-1" d="M164.26,207.91a22.41,22.41,0,0,0,2.21,1.59,16.89,16.89,0,0,0,2.33,1.25c.81.35,1.67.47,2.44.83a17.73,17.73,0,0,1,2.46,1.24l0,.17a5,5,0,0,1-2.93.27,6.87,6.87,0,0,1-2.62-1.27,13.41,13.41,0,0,1-2.21-1.81,15.82,15.82,0,0,1-1.79-2.15Z"/><path class="cls-1" d="M177.44,270.35c1.14-5.2,2.38-10.35,3.64-15.5s2.48-10.29,3.48-15.47a142.53,142.53,0,0,0,2.35-15.62,117.91,117.91,0,0,0,0-15.84c.48,2.62.84,5.25,1.12,7.91a64.78,64.78,0,0,1,.22,8,102,102,0,0,1-2,15.88c-1.05,5.23-2.37,10.39-3.88,15.48S179.23,265.34,177.44,270.35Z"/><path class="cls-1" d="M187,208a16.54,16.54,0,0,1-1.79,2.16,13.89,13.89,0,0,1-2.21,1.8,6.87,6.87,0,0,1-2.62,1.27,5,5,0,0,1-2.93-.27l0-.17a17.73,17.73,0,0,1,2.46-1.24c.77-.36,1.63-.48,2.44-.83a16.89,16.89,0,0,0,2.33-1.25,22.41,22.41,0,0,0,2.21-1.59Z"/><path class="cls-7" d="M178.37,403.76a.26.26,0,0,0-.41,0c-.62.59-1.22,1.2-1.88,1.72s-.67.56-1.31,0c-1.63-1.51-3.22-3.07-4.82-4.61L166,397.14c-.31-.29-.35-.29-.6,0-.81,1-1.6,2.12-2.38,3.15l12.35,12.35,6.5-6.51-.21-.15Z"/><path class="cls-7" d="M191.58,383.4,189,387.17l.28.3c.56.61,1.17,1.19,1.69,1.84s.47.62,0,1.26l-.05.06c-1.34,1.4-2.67,2.8-4,4.2s-2.84,2.93-4.25,4.4c-.36.38-.41.34,0,.69,1,.8,2.07,1.56,3.1,2.34L198.05,390Q194.85,386.72,191.58,383.4Z"/><path class="cls-7" d="M185.78,402.26Z"/><path class="cls-7" d="M172.62,376.34c.44-.43.86-.86,1.31-1.26s.76-.63,1.14-.95a.42.42,0,0,1,.62,0c.46.42.95.8,1.4,1.24l7,6.82c.32.31.63.64.95,1,.08-.09.12-.15.16-.2a31,31,0,0,0,2.29-3.39.27.27,0,0,0-.05-.41L175.7,367.5l-.29-.29,0,.09-6.6,6.48Z"/><path class="cls-7" d="M158.74,395.9c.39.35.43.35.73,0,.79-1,1.54-2.06,2.36-3.16a6.31,6.31,0,0,1-.57-.5c-.56-.62-1.13-1.25-1.66-1.9-.26-.31-.23-.36,0-.67.11-.13.21-.26.32-.38l5.51-5.7c.94-1,1.87-2,2.8-3,.24-.26.24-.28,0-.51-.49-.41-1-.82-1.5-1.21s-1-.66-1.43-1a.35.35,0,0,0-.52.05c-.44.44-.91.86-1.35,1.3l-10.34,10.31-.41.43a1.7,1.7,0,0,0,.18.19c1.12,1.12,2.22,2.25,3.36,3.35C157,394.32,157.89,395.11,158.74,395.9Z"/><path class="cls-7" d="M196.35,409.69a59.39,59.39,0,0,0-3.09-7.8c-.44-.94-.95-1.85-1.47-2.75-.25-.43-.39-.44-.75-.11s-1,1-1.46,1.45a.26.26,0,0,0-.05.36c.55,1.09,1.1,2.19,1.62,3.3a8,8,0,0,1,.55,1.51c.14.49-.09.72-.58.61a8,8,0,0,1-1.28-.42,29.19,29.19,0,0,1-5.92-3.39c-1.67-1.19-3.28-2.49-4.9-3.75-.23-.18-.34-.16-.54,0-.54.47-1.1.91-1.65,1.36l-.54.43.14.09c2,1.55,4,3.11,6.19,4.52a46.53,46.53,0,0,0,11.57,5.55c.62.19,1.24.34,1.87.47s.59,0,.51-.5C196.51,410.31,196.44,410,196.35,409.69Z"/><path class="cls-7" d="M185.69,375.55c.35.35.36.34.8.13l3.88-1.85a3,3,0,0,1,.73-.2c.39-.07.58.11.55.51a2.86,2.86,0,0,1-.16.76c-.37.84-.71,1.7-1.15,2.51a55.48,55.48,0,0,1-5.27,7.82c-.37.46-.73.94-1.09,1.41l2,2.44.18-.24c.65-.92,1.29-1.85,2-2.77a68.28,68.28,0,0,0,5.66-9.15,40.54,40.54,0,0,0,2.82-7.47c.15-.55,0-.72-.57-.7l-.21,0c-.5.12-1,.22-1.49.37a43.64,43.64,0,0,0-7.38,3.14c-.81.43-1.61.89-2.4,1.37-.37.22-.38.31-.09.64S185.27,375.14,185.69,375.55Z"/><path class="cls-7" d="M164.89,404.14a.27.27,0,0,0-.38-.05c-1.17.59-2.35,1.17-3.54,1.72a5.44,5.44,0,0,1-1.31.43c-.46.1-.65-.12-.58-.59a4,4,0,0,1,.2-.75,29.59,29.59,0,0,1,3.5-6.39c1.14-1.58,2.38-3.08,3.57-4.61.16-.2.31-.4.48-.6l-2-2.43-.12.13c-1.54,2.16-3.13,4.29-4.6,6.49a43.43,43.43,0,0,0-5.56,11.76,11.68,11.68,0,0,0-.33,1.42c-.07.41,0,.49.41.42a10.07,10.07,0,0,0,1.42-.33,59.63,59.63,0,0,0,7.81-3.11c.81-.38,1.59-.83,2.35-1.28.47-.28.48-.4.12-.81S165.36,404.62,164.89,404.14Z"/><path class="cls-7" d="M154.48,370.63a61.51,61.51,0,0,0,3.6,8.54,18.11,18.11,0,0,0,1,1.7c.2.32.31.33.58.09.43-.37.83-.77,1.22-1.17s.44-.47.16-1.06c-.55-1.15-1.1-2.3-1.62-3.47a4.55,4.55,0,0,1-.31-1.15c-.07-.54.16-.71.67-.56l.22.08c.93.43,1.88.83,2.78,1.31a46.56,46.56,0,0,1,7.89,5.38l1.34,1.11,2.45-2.19-.26-.18-2.72-1.88a80.46,80.46,0,0,0-9.17-5.63,37.38,37.38,0,0,0-6.47-2.52,5.18,5.18,0,0,0-1.23-.2c-.39,0-.52.14-.45.51A11.52,11.52,0,0,0,154.48,370.63Z"/><path class="cls-7" d="M182.18,393.21c-.59-.59-1.13-1.15-1.69-1.7a3,3,0,0,0-.54-.36.24.24,0,0,0-.22,0c-.59.63-1.13,1.32-1.76,1.91-2.28,2.11-4.6,4.19-6.9,6.28l-.37.34,2,2.11A116.66,116.66,0,0,0,182.18,393.21Z"/><path class="cls-7" d="M180.05,380.09l-2.08-2a1,1,0,0,0-.19.14c-1.43,1.25-2.9,2.47-4.29,3.76s-3,2.84-4.42,4.27c-.32.31-.32.35-.06.71.47.66,1,1.31,1.45,1.94Z"/><path class="cls-7" d="M187.24,392.64c-.5-.65-1-1.31-1.49-1.9q-2.43-2.65-4.9-5.27c-.61-.66-1.28-1.28-1.92-1.91a.34.34,0,0,0-.52-.05c-.36.26-.74.49-1.09.76s-.64.55-1,.84a106.27,106.27,0,0,1,8.78,9.59Z"/><path class="cls-7" d="M163.47,387.44c2.85,3.14,5.61,6.32,8.69,9.22l2.16-1.79-8.79-9.56C164.87,386,164.18,386.72,163.47,387.44Z"/><path class="cls-1" d="M90.71,301.29a2.59,2.59,0,0,1-4,.69,1.86,1.86,0,0,1-.44-1.4,2.4,2.4,0,0,1,.4-1.14,2.48,2.48,0,0,1,1.78-1.16,5.61,5.61,0,0,0-.71,1.64,1.38,1.38,0,0,0,.08,1.06,2,2,0,0,0,1.15.45A5.17,5.17,0,0,0,90.71,301.29Z"/><path class="cls-1" d="M68.61,405.92a2.08,2.08,0,0,1-1,1.56,2.19,2.19,0,0,1-2.09.24,1.6,1.6,0,0,1-.86-1,2.15,2.15,0,0,1,1-2.57,4.79,4.79,0,0,0,0,1.53,1.71,1.71,0,0,0,.2.52.49.49,0,0,0,.23.19,1.88,1.88,0,0,0,1.06.05A4.77,4.77,0,0,0,68.61,405.92Z"/><path class="cls-1" d="M68.55,228.91a4.72,4.72,0,0,0-1.43-.57,1.89,1.89,0,0,0-1.06,0,.45.45,0,0,0-.22.2,1.51,1.51,0,0,0-.2.51,4.79,4.79,0,0,0,0,1.53,2.09,2.09,0,0,1-1.07-1.5,2,2,0,0,1,.07-1.07,1.62,1.62,0,0,1,.87-.95,2.2,2.2,0,0,1,2.09.24A2.12,2.12,0,0,1,68.55,228.91Z"/><path class="cls-1" d="M90.44,333.43a5.52,5.52,0,0,0-1.79-.15,2.11,2.11,0,0,0-1.14.45,1.41,1.41,0,0,0-.09,1.06,5.5,5.5,0,0,0,.71,1.64,2.44,2.44,0,0,1-1.78-1.16,2.58,2.58,0,0,1-.4-1.14,1.9,1.9,0,0,1,.44-1.4,2.4,2.4,0,0,1,2.37-.61A2.48,2.48,0,0,1,90.44,333.43Z"/></svg>