<?xml version="1.0" encoding="UTF-8"?>
<!DOCTYPE svg PUBLIC "-//W3C//DTD SVG 1.1//EN" "http://www.w3.org/Graphics/SVG/1.1/DTD/svg11.dtd">
<!-- Creator: CorelDRAW X6 -->
<svg xmlns="http://www.w3.org/2000/svg" xml:space="preserve" width="100%" height="100%" version="1.1" style="shape-rendering:geometricPrecision; text-rendering:geometricPrecision; image-rendering:optimizeQuality; fill-rule:evenodd; clip-rule:evenodd"
viewBox="0 0 6100 8400"
 xmlns:xlink="http://www.w3.org/1999/xlink">
 <defs>
  <style type="text/css">
   <![CDATA[
    .fil0 {fill:#2B2A29}
    .fil1 {fill:#201A17}
   ]]>
  </style>
 </defs>
 <g id="Слой_x0020_1">
  <metadata id="CorelCorpID_0Corel-Layer"/>
  <path class="fil0" d="M4019 3542c4,31 6,63 6,95 0,470 -387,856 -881,900l0 416 201 0 0 0c101,0 174,-2 220,-5 39,-2 63,-8 72,-20 10,-13 15,-42 15,-90l0 -77 53 0c-4,73 -5,155 -5,245 0,108 1,218 5,329l-53 0 0 -81c0,-53 -12,-85 -35,-96 -19,-9 -110,-14 -272,-15l0 -1 -201 0 0 33c0,94 0,185 0,272l1 0c0,101 2,175 4,221 2,38 9,62 21,72 13,9 42,14 90,14l77 0 0 53c-73,-3 -155,-5 -245,-5 -109,0 -218,2 -329,5l0 -53 81 0c53,0 85,-11 96,-34 9,-20 14,-111 15,-273l0 0c1,-98 1,-199 1,-305l-201 0 0 1c-162,1 -253,6 -272,15 -23,11 -35,43 -35,96l0 81 -53 0c4,-111 5,-221 5,-329 0,-90 -1,-172 -5,-245l53 0 0 77c0,48 5,77 15,90 9,12 33,18 72,20 46,3 119,5 220,5l0 0 201 0 0 -416c-494,-44 -881,-430 -881,-900 0,-32 2,-64 6,-95 48,426 414,764 875,805l0 -867 0 -48 -201 0 0 1c-162,1 -253,6 -272,15 -23,11 -35,43 -35,96l0 81 -53 0c4,-111 5,-221 5,-329 0,-90 -1,-172 -5,-245l53 0 0 77c0,48 5,77 15,90 9,12 33,18 72,20 46,3 119,5 220,5l0 0 200 0c0,-104 0,-204 0,-299 -1,-157 -7,-245 -15,-264 -11,-23 -43,-34 -96,-34l-81 0 0 -53c111,3 220,5 329,5 90,0 172,-2 245,-5l0 53 -77 0c-48,0 -77,5 -90,14 -12,10 -19,34 -21,72 -2,44 -4,114 -4,209l0 3 -1 299 201 0 0 0c101,0 174,-2 220,-5 39,-2 63,-8 72,-20 10,-13 15,-42 15,-90l0 -77 53 0c-4,73 -5,155 -5,245 0,108 1,218 5,329l-53 0 0 -81c0,-53 -12,-85 -35,-96 -19,-9 -110,-14 -272,-15l0 -1 -201 0 0 58 0 857c461,-41 827,-379 875,-805z"/>
  <path class="fil1" d="M3022 5955l-5 0c-970,-1 -1748,-818 -1747,-1779 0,-977 824,-1738 1777,-1744 958,-7 1767,796 1758,1763 -8,991 -792,1761 -1783,1760zm-1887 -2561c-197,586 -233,1019 6,1607 182,448 525,793 950,1016 509,268 1067,300 1611,118 243,-82 434,-187 634,-347 213,-169 298,-323 459,-527l667 343c-303,652 -1004,1781 -1595,2235 -121,93 -230,189 -357,279 -66,47 -126,85 -196,124 -67,39 -163,61 -215,104 46,41 482,-121 552,-151 403,-171 953,-604 1227,-924 237,-278 426,-495 631,-803 154,-231 418,-671 511,-923l-1086 -558c202,-566 224,-1044 -14,-1609 -188,-447 -519,-782 -947,-1004 -515,-267 -1059,-297 -1609,-115 -233,76 -441,190 -632,344 -213,172 -296,316 -458,522l-658 -342c297,-620 767,-1378 1228,-1886 235,-259 551,-514 843,-707 53,-36 229,-101 253,-128 41,-46 -244,33 -249,35 -193,61 -364,134 -538,238 -790,475 -1410,1234 -1855,2034 -46,83 -85,174 -131,254 -36,64 -131,174 -63,241 35,34 914,473 1031,530z"/>
 </g>
</svg>
